<!--?xml version="1.0" standalone="no"?-->
              <svg id="sw-js-blob-svg" viewBox="0 0 100 100" xmlns="http://www.w3.org/2000/svg" version="1.1">
                    <defs> 
                        <linearGradient id="sw-gradient" x1="0" x2="1" y1="1" y2="0">
                            <stop id="stop1" stop-color="rgba(243, 0, 59, 1)" offset="0%"></stop>
                            <stop id="stop2" stop-color="rgba(214.843, 57.138, 57.138, 1)" offset="100%"></stop>
                        </linearGradient>
                    </defs>
                <path fill="url(#sw-gradient)" d="M26.8,-33.2C33.4,-26.3,36.5,-16.7,37.9,-7C39.3,2.8,39,12.5,34.3,19.1C29.6,25.6,20.7,28.9,12.4,30.2C4.2,31.5,-3.4,30.8,-10.9,28.6C-18.5,26.5,-26,22.9,-31.6,16.6C-37.3,10.3,-41,1.2,-40.4,-7.9C-39.7,-17,-34.7,-26.2,-27.2,-32.9C-19.7,-39.6,-9.9,-43.8,0.1,-43.9C10.1,-44,20.1,-40,26.8,-33.2Z" width="100%" height="100%" transform="translate(50 50)" stroke-width="0" style="transition: all 0.3s ease 0s;" stroke="url(#sw-gradient)"></path>
              </svg>