<svg class="border shadow-md" viewBox="0 0 609.84 609.84" xmlns="http://www.w3.org/2000/svg" preserveAspectRatio="none" style="width: 609.84px; height: 609.84px;"><rect class="bg" id="bg" x="0" y="0" width="609.84" height="609.84" fill="#fbfbf7"/><rect x="0" y="0" width="5.517600000000001" height="5.517600000000001" rx="0" fill="#F45B69"/><rect x="29.040000000000003" y="0" width="5.517600000000001" height="5.517600000000001" rx="0" fill="#F3003b"/><rect x="58.080000000000005" y="0" width="5.517600000000001" height="5.517600000000001" rx="0" fill="#070707"/><rect x="87.12" y="0" width="5.517600000000001" height="5.517600000000001" rx="0" fill="#070707"/><rect x="116.16000000000001" y="0" width="5.517600000000001" height="5.517600000000001" rx="0" fill="#F45B69"/><rect x="145.20000000000002" y="0" width="5.517600000000001" height="5.517600000000001" rx="0" fill="#F3003b"/><rect x="174.24" y="0" width="5.517600000000001" height="5.517600000000001" rx="0" fill="#F3003b"/><rect x="203.28000000000003" y="0" width="5.517600000000001" height="5.517600000000001" rx="0" fill="#070707"/><rect x="232.32000000000002" y="0" width="5.517600000000001" height="5.517600000000001" rx="0" fill="#F3003b"/><rect x="261.36" y="0" width="5.517600000000001" height="5.517600000000001" rx="0" fill="#F3003b"/><rect x="290.40000000000003" y="0" width="5.517600000000001" height="5.517600000000001" rx="0" fill="#070707"/><rect x="319.44000000000005" y="0" width="5.517600000000001" height="5.517600000000001" rx="0" fill="#4B4B4b"/><rect x="348.48" y="0" width="5.517600000000001" height="5.517600000000001" rx="0" fill="#F45B69"/><rect x="377.52000000000004" y="0" width="5.517600000000001" height="5.517600000000001" rx="0" fill="#4B4B4b"/><rect x="406.56000000000006" y="0" width="5.517600000000001" height="5.517600000000001" rx="0" fill="#F3003b"/><rect x="435.6" y="0" width="5.517600000000001" height="5.517600000000001" rx="0" fill="#4B4B4b"/><rect x="464.64000000000004" y="0" width="5.517600000000001" height="5.517600000000001" rx="0" fill="#F45B69"/><rect x="493.68000000000006" y="0" width="5.517600000000001" height="5.517600000000001" rx="0" fill="#F45B69"/><rect x="522.72" y="0" width="5.517600000000001" height="5.517600000000001" rx="0" fill="#4B4B4b"/><rect x="551.7600000000001" y="0" width="5.517600000000001" height="5.517600000000001" rx="0" fill="#F3003b"/><rect x="580.8000000000001" y="0" width="5.517600000000001" height="5.517600000000001" rx="0" fill="#070707"/><rect x="0" y="29.040000000000003" width="5.517600000000001" height="5.517600000000001" rx="0" fill="#4B4B4b"/><rect x="29.040000000000003" y="29.040000000000003" width="5.517600000000001" height="5.517600000000001" rx="0" fill="#F3003b"/><rect x="58.080000000000005" y="29.040000000000003" width="5.517600000000001" height="5.517600000000001" rx="0" fill="#F3003b"/><rect x="87.12" y="29.040000000000003" width="5.517600000000001" height="5.517600000000001" rx="0" fill="#F3003b"/><rect x="116.16000000000001" y="29.040000000000003" width="5.517600000000001" height="5.517600000000001" rx="0" fill="#F45B69"/><rect x="145.20000000000002" y="29.040000000000003" width="5.517600000000001" height="5.517600000000001" rx="0" fill="#F3003b"/><rect x="174.24" y="29.040000000000003" width="5.517600000000001" height="5.517600000000001" rx="0" fill="#070707"/><rect x="203.28000000000003" y="29.040000000000003" width="5.517600000000001" height="5.517600000000001" rx="0" fill="#F45B69"/><rect x="232.32000000000002" y="29.040000000000003" width="5.517600000000001" height="5.517600000000001" rx="0" fill="#4B4B4b"/><rect x="261.36" y="29.040000000000003" width="5.517600000000001" height="5.517600000000001" rx="0" fill="#F3003b"/><rect x="290.40000000000003" y="29.040000000000003" width="5.517600000000001" height="5.517600000000001" rx="0" fill="#F45B69"/><rect x="319.44000000000005" y="29.040000000000003" width="5.517600000000001" height="5.517600000000001" rx="0" fill="#070707"/><rect x="348.48" y="29.040000000000003" width="5.517600000000001" height="5.517600000000001" rx="0" fill="#F3003b"/><rect x="377.52000000000004" y="29.040000000000003" width="5.517600000000001" height="5.517600000000001" rx="0" fill="#F3003b"/><rect x="406.56000000000006" y="29.040000000000003" width="5.517600000000001" height="5.517600000000001" rx="0" fill="#F45B69"/><rect x="435.6" y="29.040000000000003" width="5.517600000000001" height="5.517600000000001" rx="0" fill="#4B4B4b"/><rect x="464.64000000000004" y="29.040000000000003" width="5.517600000000001" height="5.517600000000001" rx="0" fill="#F3003b"/><rect x="493.68000000000006" y="29.040000000000003" width="5.517600000000001" height="5.517600000000001" rx="0" fill="#4B4B4b"/><rect x="522.72" y="29.040000000000003" width="5.517600000000001" height="5.517600000000001" rx="0" fill="#4B4B4b"/><rect x="551.7600000000001" y="29.040000000000003" width="5.517600000000001" height="5.517600000000001" rx="0" fill="#4B4B4b"/><rect x="580.8000000000001" y="29.040000000000003" width="5.517600000000001" height="5.517600000000001" rx="0" fill="#4B4B4b"/><rect x="0" y="58.080000000000005" width="5.517600000000001" height="5.517600000000001" rx="0" fill="#4B4B4b"/><rect x="29.040000000000003" y="58.080000000000005" width="5.517600000000001" height="5.517600000000001" rx="0" fill="#F3003b"/><rect x="58.080000000000005" y="58.080000000000005" width="5.517600000000001" height="5.517600000000001" rx="0" fill="#4B4B4b"/><rect x="87.12" y="58.080000000000005" width="5.517600000000001" height="5.517600000000001" rx="0" fill="#4B4B4b"/><rect x="116.16000000000001" y="58.080000000000005" width="5.517600000000001" height="5.517600000000001" rx="0" fill="#F3003b"/><rect x="145.20000000000002" y="58.080000000000005" width="5.517600000000001" height="5.517600000000001" rx="0" fill="#4B4B4b"/><rect x="174.24" y="58.080000000000005" width="5.517600000000001" height="5.517600000000001" rx="0" fill="#F45B69"/><rect x="203.28000000000003" y="58.080000000000005" width="5.517600000000001" height="5.517600000000001" rx="0" fill="#070707"/><rect x="232.32000000000002" y="58.080000000000005" width="5.517600000000001" height="5.517600000000001" rx="0" fill="#4B4B4b"/><rect x="261.36" y="58.080000000000005" width="5.517600000000001" height="5.517600000000001" rx="0" fill="#F45B69"/><rect x="290.40000000000003" y="58.080000000000005" width="5.517600000000001" height="5.517600000000001" rx="0" fill="#F45B69"/><rect x="319.44000000000005" y="58.080000000000005" width="5.517600000000001" height="5.517600000000001" rx="0" fill="#F45B69"/><rect x="348.48" y="58.080000000000005" width="5.517600000000001" height="5.517600000000001" rx="0" fill="#F45B69"/><rect x="377.52000000000004" y="58.080000000000005" width="5.517600000000001" height="5.517600000000001" rx="0" fill="#070707"/><rect x="406.56000000000006" y="58.080000000000005" width="5.517600000000001" height="5.517600000000001" rx="0" fill="#070707"/><rect x="435.6" y="58.080000000000005" width="5.517600000000001" height="5.517600000000001" rx="0" fill="#F3003b"/><rect x="464.64000000000004" y="58.080000000000005" width="5.517600000000001" height="5.517600000000001" rx="0" fill="#F45B69"/><rect x="493.68000000000006" y="58.080000000000005" width="5.517600000000001" height="5.517600000000001" rx="0" fill="#F45B69"/><rect x="522.72" y="58.080000000000005" width="5.517600000000001" height="5.517600000000001" rx="0" fill="#4B4B4b"/><rect x="551.7600000000001" y="58.080000000000005" width="5.517600000000001" height="5.517600000000001" rx="0" fill="#070707"/><rect x="580.8000000000001" y="58.080000000000005" width="5.517600000000001" height="5.517600000000001" rx="0" fill="#F3003b"/><rect x="0" y="87.12" width="5.517600000000001" height="5.517600000000001" rx="0" fill="#F45B69"/><rect x="29.040000000000003" y="87.12" width="5.517600000000001" height="5.517600000000001" rx="0" fill="#070707"/><rect x="58.080000000000005" y="87.12" width="5.517600000000001" height="5.517600000000001" rx="0" fill="#070707"/><rect x="87.12" y="87.12" width="5.517600000000001" height="5.517600000000001" rx="0" fill="#F45B69"/><rect x="116.16000000000001" y="87.12" width="5.517600000000001" height="5.517600000000001" rx="0" fill="#4B4B4b"/><rect x="145.20000000000002" y="87.12" width="5.517600000000001" height="5.517600000000001" rx="0" fill="#4B4B4b"/><rect x="174.24" y="87.12" width="5.517600000000001" height="5.517600000000001" rx="0" fill="#4B4B4b"/><rect x="203.28000000000003" y="87.12" width="5.517600000000001" height="5.517600000000001" rx="0" fill="#F45B69"/><rect x="232.32000000000002" y="87.12" width="5.517600000000001" height="5.517600000000001" rx="0" fill="#F45B69"/><rect x="261.36" y="87.12" width="5.517600000000001" height="5.517600000000001" rx="0" fill="#F45B69"/><rect x="290.40000000000003" y="87.12" width="5.517600000000001" height="5.517600000000001" rx="0" fill="#F45B69"/><rect x="319.44000000000005" y="87.12" width="5.517600000000001" height="5.517600000000001" rx="0" fill="#070707"/><rect x="348.48" y="87.12" width="5.517600000000001" height="5.517600000000001" rx="0" fill="#F45B69"/><rect x="377.52000000000004" y="87.12" width="5.517600000000001" height="5.517600000000001" rx="0" fill="#F3003b"/><rect x="406.56000000000006" y="87.12" width="5.517600000000001" height="5.517600000000001" rx="0" fill="#F45B69"/><rect x="435.6" y="87.12" width="5.517600000000001" height="5.517600000000001" rx="0" fill="#4B4B4b"/><rect x="464.64000000000004" y="87.12" width="5.517600000000001" height="5.517600000000001" rx="0" fill="#070707"/><rect x="493.68000000000006" y="87.12" width="5.517600000000001" height="5.517600000000001" rx="0" fill="#070707"/><rect x="522.72" y="87.12" width="5.517600000000001" height="5.517600000000001" rx="0" fill="#070707"/><rect x="551.7600000000001" y="87.12" width="5.517600000000001" height="5.517600000000001" rx="0" fill="#4B4B4b"/><rect x="580.8000000000001" y="87.12" width="5.517600000000001" height="5.517600000000001" rx="0" fill="#F45B69"/><rect x="0" y="116.16000000000001" width="5.517600000000001" height="5.517600000000001" rx="0" fill="#4B4B4b"/><rect x="29.040000000000003" y="116.16000000000001" width="5.517600000000001" height="5.517600000000001" rx="0" fill="#070707"/><rect x="58.080000000000005" y="116.16000000000001" width="5.517600000000001" height="5.517600000000001" rx="0" fill="#4B4B4b"/><rect x="87.12" y="116.16000000000001" width="5.517600000000001" height="5.517600000000001" rx="0" fill="#070707"/><rect x="116.16000000000001" y="116.16000000000001" width="5.517600000000001" height="5.517600000000001" rx="0" fill="#F45B69"/><rect x="145.20000000000002" y="116.16000000000001" width="5.517600000000001" height="5.517600000000001" rx="0" fill="#F45B69"/><rect x="174.24" y="116.16000000000001" width="5.517600000000001" height="5.517600000000001" rx="0" fill="#070707"/><rect x="203.28000000000003" y="116.16000000000001" width="5.517600000000001" height="5.517600000000001" rx="0" fill="#4B4B4b"/><rect x="232.32000000000002" y="116.16000000000001" width="5.517600000000001" height="5.517600000000001" rx="0" fill="#F45B69"/><rect x="261.36" y="116.16000000000001" width="5.517600000000001" height="5.517600000000001" rx="0" fill="#4B4B4b"/><rect x="290.40000000000003" y="116.16000000000001" width="5.517600000000001" height="5.517600000000001" rx="0" fill="#070707"/><rect x="319.44000000000005" y="116.16000000000001" width="5.517600000000001" height="5.517600000000001" rx="0" fill="#F45B69"/><rect x="348.48" y="116.16000000000001" width="5.517600000000001" height="5.517600000000001" rx="0" fill="#F45B69"/><rect x="377.52000000000004" y="116.16000000000001" width="5.517600000000001" height="5.517600000000001" rx="0" fill="#F3003b"/><rect x="406.56000000000006" y="116.16000000000001" width="5.517600000000001" height="5.517600000000001" rx="0" fill="#4B4B4b"/><rect x="435.6" y="116.16000000000001" width="5.517600000000001" height="5.517600000000001" rx="0" fill="#4B4B4b"/><rect x="464.64000000000004" y="116.16000000000001" width="5.517600000000001" height="5.517600000000001" rx="0" fill="#F45B69"/><rect x="493.68000000000006" y="116.16000000000001" width="5.517600000000001" height="5.517600000000001" rx="0" fill="#070707"/><rect x="522.72" y="116.16000000000001" width="5.517600000000001" height="5.517600000000001" rx="0" fill="#070707"/><rect x="551.7600000000001" y="116.16000000000001" width="5.517600000000001" height="5.517600000000001" rx="0" fill="#070707"/><rect x="580.8000000000001" y="116.16000000000001" width="5.517600000000001" height="5.517600000000001" rx="0" fill="#F3003b"/><rect x="0" y="145.20000000000002" width="5.517600000000001" height="5.517600000000001" rx="0" fill="#F3003b"/><rect x="29.040000000000003" y="145.20000000000002" width="5.517600000000001" height="5.517600000000001" rx="0" fill="#4B4B4b"/><rect x="58.080000000000005" y="145.20000000000002" width="5.517600000000001" height="5.517600000000001" rx="0" fill="#4B4B4b"/><rect x="87.12" y="145.20000000000002" width="5.517600000000001" height="5.517600000000001" rx="0" fill="#070707"/><rect x="116.16000000000001" y="145.20000000000002" width="5.517600000000001" height="5.517600000000001" rx="0" fill="#4B4B4b"/><rect x="145.20000000000002" y="145.20000000000002" width="5.517600000000001" height="5.517600000000001" rx="0" fill="#4B4B4b"/><rect x="174.24" y="145.20000000000002" width="5.517600000000001" height="5.517600000000001" rx="0" fill="#F3003b"/><rect x="203.28000000000003" y="145.20000000000002" width="5.517600000000001" height="5.517600000000001" rx="0" fill="#F3003b"/><rect x="232.32000000000002" y="145.20000000000002" width="5.517600000000001" height="5.517600000000001" rx="0" fill="#4B4B4b"/><rect x="261.36" y="145.20000000000002" width="5.517600000000001" height="5.517600000000001" rx="0" fill="#F45B69"/><rect x="290.40000000000003" y="145.20000000000002" width="5.517600000000001" height="5.517600000000001" rx="0" fill="#F3003b"/><rect x="319.44000000000005" y="145.20000000000002" width="5.517600000000001" height="5.517600000000001" rx="0" fill="#4B4B4b"/><rect x="348.48" y="145.20000000000002" width="5.517600000000001" height="5.517600000000001" rx="0" fill="#4B4B4b"/><rect x="377.52000000000004" y="145.20000000000002" width="5.517600000000001" height="5.517600000000001" rx="0" fill="#F45B69"/><rect x="406.56000000000006" y="145.20000000000002" width="5.517600000000001" height="5.517600000000001" rx="0" fill="#F45B69"/><rect x="435.6" y="145.20000000000002" width="5.517600000000001" height="5.517600000000001" rx="0" fill="#4B4B4b"/><rect x="464.64000000000004" y="145.20000000000002" width="5.517600000000001" height="5.517600000000001" rx="0" fill="#F45B69"/><rect x="493.68000000000006" y="145.20000000000002" width="5.517600000000001" height="5.517600000000001" rx="0" fill="#070707"/><rect x="522.72" y="145.20000000000002" width="5.517600000000001" height="5.517600000000001" rx="0" fill="#070707"/><rect x="551.7600000000001" y="145.20000000000002" width="5.517600000000001" height="5.517600000000001" rx="0" fill="#F45B69"/><rect x="580.8000000000001" y="145.20000000000002" width="5.517600000000001" height="5.517600000000001" rx="0" fill="#070707"/><rect x="0" y="174.24" width="5.517600000000001" height="5.517600000000001" rx="0" fill="#F45B69"/><rect x="29.040000000000003" y="174.24" width="5.517600000000001" height="5.517600000000001" rx="0" fill="#070707"/><rect x="58.080000000000005" y="174.24" width="5.517600000000001" height="5.517600000000001" rx="0" fill="#F3003b"/><rect x="87.12" y="174.24" width="5.517600000000001" height="5.517600000000001" rx="0" fill="#070707"/><rect x="116.16000000000001" y="174.24" width="5.517600000000001" height="5.517600000000001" rx="0" fill="#F3003b"/><rect x="145.20000000000002" y="174.24" width="5.517600000000001" height="5.517600000000001" rx="0" fill="#4B4B4b"/><rect x="174.24" y="174.24" width="5.517600000000001" height="5.517600000000001" rx="0" fill="#F3003b"/><rect x="203.28000000000003" y="174.24" width="5.517600000000001" height="5.517600000000001" rx="0" fill="#070707"/><rect x="232.32000000000002" y="174.24" width="5.517600000000001" height="5.517600000000001" rx="0" fill="#F3003b"/><rect x="261.36" y="174.24" width="5.517600000000001" height="5.517600000000001" rx="0" fill="#F45B69"/><rect x="290.40000000000003" y="174.24" width="5.517600000000001" height="5.517600000000001" rx="0" fill="#070707"/><rect x="319.44000000000005" y="174.24" width="5.517600000000001" height="5.517600000000001" rx="0" fill="#070707"/><rect x="348.48" y="174.24" width="5.517600000000001" height="5.517600000000001" rx="0" fill="#F45B69"/><rect x="377.52000000000004" y="174.24" width="5.517600000000001" height="5.517600000000001" rx="0" fill="#070707"/><rect x="406.56000000000006" y="174.24" width="5.517600000000001" height="5.517600000000001" rx="0" fill="#F45B69"/><rect x="435.6" y="174.24" width="5.517600000000001" height="5.517600000000001" rx="0" fill="#4B4B4b"/><rect x="464.64000000000004" y="174.24" width="5.517600000000001" height="5.517600000000001" rx="0" fill="#F3003b"/><rect x="493.68000000000006" y="174.24" width="5.517600000000001" height="5.517600000000001" rx="0" fill="#F45B69"/><rect x="522.72" y="174.24" width="5.517600000000001" height="5.517600000000001" rx="0" fill="#4B4B4b"/><rect x="551.7600000000001" y="174.24" width="5.517600000000001" height="5.517600000000001" rx="0" fill="#F3003b"/><rect x="580.8000000000001" y="174.24" width="5.517600000000001" height="5.517600000000001" rx="0" fill="#4B4B4b"/><rect x="0" y="203.28000000000003" width="5.517600000000001" height="5.517600000000001" rx="0" fill="#4B4B4b"/><rect x="29.040000000000003" y="203.28000000000003" width="5.517600000000001" height="5.517600000000001" rx="0" fill="#F45B69"/><rect x="58.080000000000005" y="203.28000000000003" width="5.517600000000001" height="5.517600000000001" rx="0" fill="#F3003b"/><rect x="87.12" y="203.28000000000003" width="5.517600000000001" height="5.517600000000001" rx="0" fill="#4B4B4b"/><rect x="116.16000000000001" y="203.28000000000003" width="5.517600000000001" height="5.517600000000001" rx="0" fill="#4B4B4b"/><rect x="145.20000000000002" y="203.28000000000003" width="5.517600000000001" height="5.517600000000001" rx="0" fill="#F45B69"/><rect x="174.24" y="203.28000000000003" width="5.517600000000001" height="5.517600000000001" rx="0" fill="#4B4B4b"/><rect x="203.28000000000003" y="203.28000000000003" width="5.517600000000001" height="5.517600000000001" rx="0" fill="#F45B69"/><rect x="232.32000000000002" y="203.28000000000003" width="5.517600000000001" height="5.517600000000001" rx="0" fill="#4B4B4b"/><rect x="261.36" y="203.28000000000003" width="5.517600000000001" height="5.517600000000001" rx="0" fill="#F3003b"/><rect x="290.40000000000003" y="203.28000000000003" width="5.517600000000001" height="5.517600000000001" rx="0" fill="#070707"/><rect x="319.44000000000005" y="203.28000000000003" width="5.517600000000001" height="5.517600000000001" rx="0" fill="#F3003b"/><rect x="348.48" y="203.28000000000003" width="5.517600000000001" height="5.517600000000001" rx="0" fill="#4B4B4b"/><rect x="377.52000000000004" y="203.28000000000003" width="5.517600000000001" height="5.517600000000001" rx="0" fill="#F3003b"/><rect x="406.56000000000006" y="203.28000000000003" width="5.517600000000001" height="5.517600000000001" rx="0" fill="#070707"/><rect x="435.6" y="203.28000000000003" width="5.517600000000001" height="5.517600000000001" rx="0" fill="#F45B69"/><rect x="464.64000000000004" y="203.28000000000003" width="5.517600000000001" height="5.517600000000001" rx="0" fill="#4B4B4b"/><rect x="493.68000000000006" y="203.28000000000003" width="5.517600000000001" height="5.517600000000001" rx="0" fill="#4B4B4b"/><rect x="522.72" y="203.28000000000003" width="5.517600000000001" height="5.517600000000001" rx="0" fill="#F3003b"/><rect x="551.7600000000001" y="203.28000000000003" width="5.517600000000001" height="5.517600000000001" rx="0" fill="#4B4B4b"/><rect x="580.8000000000001" y="203.28000000000003" width="5.517600000000001" height="5.517600000000001" rx="0" fill="#4B4B4b"/><rect x="0" y="232.32000000000002" width="5.517600000000001" height="5.517600000000001" rx="0" fill="#070707"/><rect x="29.040000000000003" y="232.32000000000002" width="5.517600000000001" height="5.517600000000001" rx="0" fill="#070707"/><rect x="58.080000000000005" y="232.32000000000002" width="5.517600000000001" height="5.517600000000001" rx="0" fill="#F45B69"/><rect x="87.12" y="232.32000000000002" width="5.517600000000001" height="5.517600000000001" rx="0" fill="#F45B69"/><rect x="116.16000000000001" y="232.32000000000002" width="5.517600000000001" height="5.517600000000001" rx="0" fill="#4B4B4b"/><rect x="145.20000000000002" y="232.32000000000002" width="5.517600000000001" height="5.517600000000001" rx="0" fill="#070707"/><rect x="174.24" y="232.32000000000002" width="5.517600000000001" height="5.517600000000001" rx="0" fill="#4B4B4b"/><rect x="203.28000000000003" y="232.32000000000002" width="5.517600000000001" height="5.517600000000001" rx="0" fill="#F3003b"/><rect x="232.32000000000002" y="232.32000000000002" width="5.517600000000001" height="5.517600000000001" rx="0" fill="#070707"/><rect x="261.36" y="232.32000000000002" width="5.517600000000001" height="5.517600000000001" rx="0" fill="#4B4B4b"/><rect x="290.40000000000003" y="232.32000000000002" width="5.517600000000001" height="5.517600000000001" rx="0" fill="#F3003b"/><rect x="319.44000000000005" y="232.32000000000002" width="5.517600000000001" height="5.517600000000001" rx="0" fill="#070707"/><rect x="348.48" y="232.32000000000002" width="5.517600000000001" height="5.517600000000001" rx="0" fill="#F45B69"/><rect x="377.52000000000004" y="232.32000000000002" width="5.517600000000001" height="5.517600000000001" rx="0" fill="#F3003b"/><rect x="406.56000000000006" y="232.32000000000002" width="5.517600000000001" height="5.517600000000001" rx="0" fill="#F45B69"/><rect x="435.6" y="232.32000000000002" width="5.517600000000001" height="5.517600000000001" rx="0" fill="#F3003b"/><rect x="464.64000000000004" y="232.32000000000002" width="5.517600000000001" height="5.517600000000001" rx="0" fill="#F45B69"/><rect x="493.68000000000006" y="232.32000000000002" width="5.517600000000001" height="5.517600000000001" rx="0" fill="#070707"/><rect x="522.72" y="232.32000000000002" width="5.517600000000001" height="5.517600000000001" rx="0" fill="#4B4B4b"/><rect x="551.7600000000001" y="232.32000000000002" width="5.517600000000001" height="5.517600000000001" rx="0" fill="#F45B69"/><rect x="580.8000000000001" y="232.32000000000002" width="5.517600000000001" height="5.517600000000001" rx="0" fill="#F3003b"/><rect x="0" y="261.36" width="5.517600000000001" height="5.517600000000001" rx="0" fill="#F3003b"/><rect x="29.040000000000003" y="261.36" width="5.517600000000001" height="5.517600000000001" rx="0" fill="#4B4B4b"/><rect x="58.080000000000005" y="261.36" width="5.517600000000001" height="5.517600000000001" rx="0" fill="#F3003b"/><rect x="87.12" y="261.36" width="5.517600000000001" height="5.517600000000001" rx="0" fill="#F45B69"/><rect x="116.16000000000001" y="261.36" width="5.517600000000001" height="5.517600000000001" rx="0" fill="#F3003b"/><rect x="145.20000000000002" y="261.36" width="5.517600000000001" height="5.517600000000001" rx="0" fill="#070707"/><rect x="174.24" y="261.36" width="5.517600000000001" height="5.517600000000001" rx="0" fill="#F45B69"/><rect x="203.28000000000003" y="261.36" width="5.517600000000001" height="5.517600000000001" rx="0" fill="#4B4B4b"/><rect x="232.32000000000002" y="261.36" width="5.517600000000001" height="5.517600000000001" rx="0" fill="#F3003b"/><rect x="261.36" y="261.36" width="5.517600000000001" height="5.517600000000001" rx="0" fill="#070707"/><rect x="290.40000000000003" y="261.36" width="5.517600000000001" height="5.517600000000001" rx="0" fill="#F3003b"/><rect x="319.44000000000005" y="261.36" width="5.517600000000001" height="5.517600000000001" rx="0" fill="#F3003b"/><rect x="348.48" y="261.36" width="5.517600000000001" height="5.517600000000001" rx="0" fill="#070707"/><rect x="377.52000000000004" y="261.36" width="5.517600000000001" height="5.517600000000001" rx="0" fill="#4B4B4b"/><rect x="406.56000000000006" y="261.36" width="5.517600000000001" height="5.517600000000001" rx="0" fill="#F3003b"/><rect x="435.6" y="261.36" width="5.517600000000001" height="5.517600000000001" rx="0" fill="#F3003b"/><rect x="464.64000000000004" y="261.36" width="5.517600000000001" height="5.517600000000001" rx="0" fill="#4B4B4b"/><rect x="493.68000000000006" y="261.36" width="5.517600000000001" height="5.517600000000001" rx="0" fill="#070707"/><rect x="522.72" y="261.36" width="5.517600000000001" height="5.517600000000001" rx="0" fill="#070707"/><rect x="551.7600000000001" y="261.36" width="5.517600000000001" height="5.517600000000001" rx="0" fill="#F45B69"/><rect x="580.8000000000001" y="261.36" width="5.517600000000001" height="5.517600000000001" rx="0" fill="#070707"/><rect x="0" y="290.40000000000003" width="5.517600000000001" height="5.517600000000001" rx="0" fill="#070707"/><rect x="29.040000000000003" y="290.40000000000003" width="5.517600000000001" height="5.517600000000001" rx="0" fill="#F45B69"/><rect x="58.080000000000005" y="290.40000000000003" width="5.517600000000001" height="5.517600000000001" rx="0" fill="#F3003b"/><rect x="87.12" y="290.40000000000003" width="5.517600000000001" height="5.517600000000001" rx="0" fill="#4B4B4b"/><rect x="116.16000000000001" y="290.40000000000003" width="5.517600000000001" height="5.517600000000001" rx="0" fill="#4B4B4b"/><rect x="145.20000000000002" y="290.40000000000003" width="5.517600000000001" height="5.517600000000001" rx="0" fill="#070707"/><rect x="174.24" y="290.40000000000003" width="5.517600000000001" height="5.517600000000001" rx="0" fill="#4B4B4b"/><rect x="203.28000000000003" y="290.40000000000003" width="5.517600000000001" height="5.517600000000001" rx="0" fill="#F45B69"/><rect x="232.32000000000002" y="290.40000000000003" width="5.517600000000001" height="5.517600000000001" rx="0" fill="#F45B69"/><rect x="261.36" y="290.40000000000003" width="5.517600000000001" height="5.517600000000001" rx="0" fill="#070707"/><rect x="290.40000000000003" y="290.40000000000003" width="5.517600000000001" height="5.517600000000001" rx="0" fill="#4B4B4b"/><rect x="319.44000000000005" y="290.40000000000003" width="5.517600000000001" height="5.517600000000001" rx="0" fill="#4B4B4b"/><rect x="348.48" y="290.40000000000003" width="5.517600000000001" height="5.517600000000001" rx="0" fill="#4B4B4b"/><rect x="377.52000000000004" y="290.40000000000003" width="5.517600000000001" height="5.517600000000001" rx="0" fill="#F3003b"/><rect x="406.56000000000006" y="290.40000000000003" width="5.517600000000001" height="5.517600000000001" rx="0" fill="#4B4B4b"/><rect x="435.6" y="290.40000000000003" width="5.517600000000001" height="5.517600000000001" rx="0" fill="#F45B69"/><rect x="464.64000000000004" y="290.40000000000003" width="5.517600000000001" height="5.517600000000001" rx="0" fill="#F3003b"/><rect x="493.68000000000006" y="290.40000000000003" width="5.517600000000001" height="5.517600000000001" rx="0" fill="#4B4B4b"/><rect x="522.72" y="290.40000000000003" width="5.517600000000001" height="5.517600000000001" rx="0" fill="#F45B69"/><rect x="551.7600000000001" y="290.40000000000003" width="5.517600000000001" height="5.517600000000001" rx="0" fill="#070707"/><rect x="580.8000000000001" y="290.40000000000003" width="5.517600000000001" height="5.517600000000001" rx="0" fill="#070707"/><rect x="0" y="319.44000000000005" width="5.517600000000001" height="5.517600000000001" rx="0" fill="#F45B69"/><rect x="29.040000000000003" y="319.44000000000005" width="5.517600000000001" height="5.517600000000001" rx="0" fill="#4B4B4b"/><rect x="58.080000000000005" y="319.44000000000005" width="5.517600000000001" height="5.517600000000001" rx="0" fill="#F45B69"/><rect x="87.12" y="319.44000000000005" width="5.517600000000001" height="5.517600000000001" rx="0" fill="#F3003b"/><rect x="116.16000000000001" y="319.44000000000005" width="5.517600000000001" height="5.517600000000001" rx="0" fill="#070707"/><rect x="145.20000000000002" y="319.44000000000005" width="5.517600000000001" height="5.517600000000001" rx="0" fill="#070707"/><rect x="174.24" y="319.44000000000005" width="5.517600000000001" height="5.517600000000001" rx="0" fill="#4B4B4b"/><rect x="203.28000000000003" y="319.44000000000005" width="5.517600000000001" height="5.517600000000001" rx="0" fill="#4B4B4b"/><rect x="232.32000000000002" y="319.44000000000005" width="5.517600000000001" height="5.517600000000001" rx="0" fill="#4B4B4b"/><rect x="261.36" y="319.44000000000005" width="5.517600000000001" height="5.517600000000001" rx="0" fill="#4B4B4b"/><rect x="290.40000000000003" y="319.44000000000005" width="5.517600000000001" height="5.517600000000001" rx="0" fill="#070707"/><rect x="319.44000000000005" y="319.44000000000005" width="5.517600000000001" height="5.517600000000001" rx="0" fill="#F45B69"/><rect x="348.48" y="319.44000000000005" width="5.517600000000001" height="5.517600000000001" rx="0" fill="#070707"/><rect x="377.52000000000004" y="319.44000000000005" width="5.517600000000001" height="5.517600000000001" rx="0" fill="#4B4B4b"/><rect x="406.56000000000006" y="319.44000000000005" width="5.517600000000001" height="5.517600000000001" rx="0" fill="#F45B69"/><rect x="435.6" y="319.44000000000005" width="5.517600000000001" height="5.517600000000001" rx="0" fill="#F3003b"/><rect x="464.64000000000004" y="319.44000000000005" width="5.517600000000001" height="5.517600000000001" rx="0" fill="#F45B69"/><rect x="493.68000000000006" y="319.44000000000005" width="5.517600000000001" height="5.517600000000001" rx="0" fill="#070707"/><rect x="522.72" y="319.44000000000005" width="5.517600000000001" height="5.517600000000001" rx="0" fill="#F3003b"/><rect x="551.7600000000001" y="319.44000000000005" width="5.517600000000001" height="5.517600000000001" rx="0" fill="#070707"/><rect x="580.8000000000001" y="319.44000000000005" width="5.517600000000001" height="5.517600000000001" rx="0" fill="#4B4B4b"/><rect x="0" y="348.48" width="5.517600000000001" height="5.517600000000001" rx="0" fill="#F3003b"/><rect x="29.040000000000003" y="348.48" width="5.517600000000001" height="5.517600000000001" rx="0" fill="#070707"/><rect x="58.080000000000005" y="348.48" width="5.517600000000001" height="5.517600000000001" rx="0" fill="#F3003b"/><rect x="87.12" y="348.48" width="5.517600000000001" height="5.517600000000001" rx="0" fill="#070707"/><rect x="116.16000000000001" y="348.48" width="5.517600000000001" height="5.517600000000001" rx="0" fill="#F45B69"/><rect x="145.20000000000002" y="348.48" width="5.517600000000001" height="5.517600000000001" rx="0" fill="#F3003b"/><rect x="174.24" y="348.48" width="5.517600000000001" height="5.517600000000001" rx="0" fill="#070707"/><rect x="203.28000000000003" y="348.48" width="5.517600000000001" height="5.517600000000001" rx="0" fill="#F3003b"/><rect x="232.32000000000002" y="348.48" width="5.517600000000001" height="5.517600000000001" rx="0" fill="#F45B69"/><rect x="261.36" y="348.48" width="5.517600000000001" height="5.517600000000001" rx="0" fill="#070707"/><rect x="290.40000000000003" y="348.48" width="5.517600000000001" height="5.517600000000001" rx="0" fill="#070707"/><rect x="319.44000000000005" y="348.48" width="5.517600000000001" height="5.517600000000001" rx="0" fill="#F45B69"/><rect x="348.48" y="348.48" width="5.517600000000001" height="5.517600000000001" rx="0" fill="#070707"/><rect x="377.52000000000004" y="348.48" width="5.517600000000001" height="5.517600000000001" rx="0" fill="#F45B69"/><rect x="406.56000000000006" y="348.48" width="5.517600000000001" height="5.517600000000001" rx="0" fill="#070707"/><rect x="435.6" y="348.48" width="5.517600000000001" height="5.517600000000001" rx="0" fill="#F3003b"/><rect x="464.64000000000004" y="348.48" width="5.517600000000001" height="5.517600000000001" rx="0" fill="#F45B69"/><rect x="493.68000000000006" y="348.48" width="5.517600000000001" height="5.517600000000001" rx="0" fill="#4B4B4b"/><rect x="522.72" y="348.48" width="5.517600000000001" height="5.517600000000001" rx="0" fill="#F45B69"/><rect x="551.7600000000001" y="348.48" width="5.517600000000001" height="5.517600000000001" rx="0" fill="#F45B69"/><rect x="580.8000000000001" y="348.48" width="5.517600000000001" height="5.517600000000001" rx="0" fill="#4B4B4b"/><rect x="0" y="377.52000000000004" width="5.517600000000001" height="5.517600000000001" rx="0" fill="#F45B69"/><rect x="29.040000000000003" y="377.52000000000004" width="5.517600000000001" height="5.517600000000001" rx="0" fill="#4B4B4b"/><rect x="58.080000000000005" y="377.52000000000004" width="5.517600000000001" height="5.517600000000001" rx="0" fill="#F45B69"/><rect x="87.12" y="377.52000000000004" width="5.517600000000001" height="5.517600000000001" rx="0" fill="#F3003b"/><rect x="116.16000000000001" y="377.52000000000004" width="5.517600000000001" height="5.517600000000001" rx="0" fill="#F45B69"/><rect x="145.20000000000002" y="377.52000000000004" width="5.517600000000001" height="5.517600000000001" rx="0" fill="#4B4B4b"/><rect x="174.24" y="377.52000000000004" width="5.517600000000001" height="5.517600000000001" rx="0" fill="#F45B69"/><rect x="203.28000000000003" y="377.52000000000004" width="5.517600000000001" height="5.517600000000001" rx="0" fill="#070707"/><rect x="232.32000000000002" y="377.52000000000004" width="5.517600000000001" height="5.517600000000001" rx="0" fill="#4B4B4b"/><rect x="261.36" y="377.52000000000004" width="5.517600000000001" height="5.517600000000001" rx="0" fill="#F45B69"/><rect x="290.40000000000003" y="377.52000000000004" width="5.517600000000001" height="5.517600000000001" rx="0" fill="#F45B69"/><rect x="319.44000000000005" y="377.52000000000004" width="5.517600000000001" height="5.517600000000001" rx="0" fill="#F3003b"/><rect x="348.48" y="377.52000000000004" width="5.517600000000001" height="5.517600000000001" rx="0" fill="#070707"/><rect x="377.52000000000004" y="377.52000000000004" width="5.517600000000001" height="5.517600000000001" rx="0" fill="#F45B69"/><rect x="406.56000000000006" y="377.52000000000004" width="5.517600000000001" height="5.517600000000001" rx="0" fill="#070707"/><rect x="435.6" y="377.52000000000004" width="5.517600000000001" height="5.517600000000001" rx="0" fill="#F45B69"/><rect x="464.64000000000004" y="377.52000000000004" width="5.517600000000001" height="5.517600000000001" rx="0" fill="#F3003b"/><rect x="493.68000000000006" y="377.52000000000004" width="5.517600000000001" height="5.517600000000001" rx="0" fill="#070707"/><rect x="522.72" y="377.52000000000004" width="5.517600000000001" height="5.517600000000001" rx="0" fill="#F45B69"/><rect x="551.7600000000001" y="377.52000000000004" width="5.517600000000001" height="5.517600000000001" rx="0" fill="#F45B69"/><rect x="580.8000000000001" y="377.52000000000004" width="5.517600000000001" height="5.517600000000001" rx="0" fill="#4B4B4b"/><rect x="0" y="406.56000000000006" width="5.517600000000001" height="5.517600000000001" rx="0" fill="#070707"/><rect x="29.040000000000003" y="406.56000000000006" width="5.517600000000001" height="5.517600000000001" rx="0" fill="#070707"/><rect x="58.080000000000005" y="406.56000000000006" width="5.517600000000001" height="5.517600000000001" rx="0" fill="#F3003b"/><rect x="87.12" y="406.56000000000006" width="5.517600000000001" height="5.517600000000001" rx="0" fill="#4B4B4b"/><rect x="116.16000000000001" y="406.56000000000006" width="5.517600000000001" height="5.517600000000001" rx="0" fill="#F45B69"/><rect x="145.20000000000002" y="406.56000000000006" width="5.517600000000001" height="5.517600000000001" rx="0" fill="#070707"/><rect x="174.24" y="406.56000000000006" width="5.517600000000001" height="5.517600000000001" rx="0" fill="#F3003b"/><rect x="203.28000000000003" y="406.56000000000006" width="5.517600000000001" height="5.517600000000001" rx="0" fill="#4B4B4b"/><rect x="232.32000000000002" y="406.56000000000006" width="5.517600000000001" height="5.517600000000001" rx="0" fill="#070707"/><rect x="261.36" y="406.56000000000006" width="5.517600000000001" height="5.517600000000001" rx="0" fill="#F45B69"/><rect x="290.40000000000003" y="406.56000000000006" width="5.517600000000001" height="5.517600000000001" rx="0" fill="#070707"/><rect x="319.44000000000005" y="406.56000000000006" width="5.517600000000001" height="5.517600000000001" rx="0" fill="#070707"/><rect x="348.48" y="406.56000000000006" width="5.517600000000001" height="5.517600000000001" rx="0" fill="#4B4B4b"/><rect x="377.52000000000004" y="406.56000000000006" width="5.517600000000001" height="5.517600000000001" rx="0" fill="#4B4B4b"/><rect x="406.56000000000006" y="406.56000000000006" width="5.517600000000001" height="5.517600000000001" rx="0" fill="#F45B69"/><rect x="435.6" y="406.56000000000006" width="5.517600000000001" height="5.517600000000001" rx="0" fill="#F3003b"/><rect x="464.64000000000004" y="406.56000000000006" width="5.517600000000001" height="5.517600000000001" rx="0" fill="#F3003b"/><rect x="493.68000000000006" y="406.56000000000006" width="5.517600000000001" height="5.517600000000001" rx="0" fill="#4B4B4b"/><rect x="522.72" y="406.56000000000006" width="5.517600000000001" height="5.517600000000001" rx="0" fill="#F3003b"/><rect x="551.7600000000001" y="406.56000000000006" width="5.517600000000001" height="5.517600000000001" rx="0" fill="#F45B69"/><rect x="580.8000000000001" y="406.56000000000006" width="5.517600000000001" height="5.517600000000001" rx="0" fill="#070707"/><rect x="0" y="435.6" width="5.517600000000001" height="5.517600000000001" rx="0" fill="#F45B69"/><rect x="29.040000000000003" y="435.6" width="5.517600000000001" height="5.517600000000001" rx="0" fill="#4B4B4b"/><rect x="58.080000000000005" y="435.6" width="5.517600000000001" height="5.517600000000001" rx="0" fill="#F3003b"/><rect x="87.12" y="435.6" width="5.517600000000001" height="5.517600000000001" rx="0" fill="#070707"/><rect x="116.16000000000001" y="435.6" width="5.517600000000001" height="5.517600000000001" rx="0" fill="#F45B69"/><rect x="145.20000000000002" y="435.6" width="5.517600000000001" height="5.517600000000001" rx="0" fill="#F3003b"/><rect x="174.24" y="435.6" width="5.517600000000001" height="5.517600000000001" rx="0" fill="#F3003b"/><rect x="203.28000000000003" y="435.6" width="5.517600000000001" height="5.517600000000001" rx="0" fill="#4B4B4b"/><rect x="232.32000000000002" y="435.6" width="5.517600000000001" height="5.517600000000001" rx="0" fill="#4B4B4b"/><rect x="261.36" y="435.6" width="5.517600000000001" height="5.517600000000001" rx="0" fill="#F3003b"/><rect x="290.40000000000003" y="435.6" width="5.517600000000001" height="5.517600000000001" rx="0" fill="#F45B69"/><rect x="319.44000000000005" y="435.6" width="5.517600000000001" height="5.517600000000001" rx="0" fill="#F45B69"/><rect x="348.48" y="435.6" width="5.517600000000001" height="5.517600000000001" rx="0" fill="#4B4B4b"/><rect x="377.52000000000004" y="435.6" width="5.517600000000001" height="5.517600000000001" rx="0" fill="#F3003b"/><rect x="406.56000000000006" y="435.6" width="5.517600000000001" height="5.517600000000001" rx="0" fill="#F3003b"/><rect x="435.6" y="435.6" width="5.517600000000001" height="5.517600000000001" rx="0" fill="#070707"/><rect x="464.64000000000004" y="435.6" width="5.517600000000001" height="5.517600000000001" rx="0" fill="#070707"/><rect x="493.68000000000006" y="435.6" width="5.517600000000001" height="5.517600000000001" rx="0" fill="#4B4B4b"/><rect x="522.72" y="435.6" width="5.517600000000001" height="5.517600000000001" rx="0" fill="#070707"/><rect x="551.7600000000001" y="435.6" width="5.517600000000001" height="5.517600000000001" rx="0" fill="#070707"/><rect x="580.8000000000001" y="435.6" width="5.517600000000001" height="5.517600000000001" rx="0" fill="#F45B69"/><rect x="0" y="464.64000000000004" width="5.517600000000001" height="5.517600000000001" rx="0" fill="#070707"/><rect x="29.040000000000003" y="464.64000000000004" width="5.517600000000001" height="5.517600000000001" rx="0" fill="#070707"/><rect x="58.080000000000005" y="464.64000000000004" width="5.517600000000001" height="5.517600000000001" rx="0" fill="#4B4B4b"/><rect x="87.12" y="464.64000000000004" width="5.517600000000001" height="5.517600000000001" rx="0" fill="#4B4B4b"/><rect x="116.16000000000001" y="464.64000000000004" width="5.517600000000001" height="5.517600000000001" rx="0" fill="#070707"/><rect x="145.20000000000002" y="464.64000000000004" width="5.517600000000001" height="5.517600000000001" rx="0" fill="#F45B69"/><rect x="174.24" y="464.64000000000004" width="5.517600000000001" height="5.517600000000001" rx="0" fill="#070707"/><rect x="203.28000000000003" y="464.64000000000004" width="5.517600000000001" height="5.517600000000001" rx="0" fill="#070707"/><rect x="232.32000000000002" y="464.64000000000004" width="5.517600000000001" height="5.517600000000001" rx="0" fill="#F45B69"/><rect x="261.36" y="464.64000000000004" width="5.517600000000001" height="5.517600000000001" rx="0" fill="#4B4B4b"/><rect x="290.40000000000003" y="464.64000000000004" width="5.517600000000001" height="5.517600000000001" rx="0" fill="#F45B69"/><rect x="319.44000000000005" y="464.64000000000004" width="5.517600000000001" height="5.517600000000001" rx="0" fill="#070707"/><rect x="348.48" y="464.64000000000004" width="5.517600000000001" height="5.517600000000001" rx="0" fill="#F45B69"/><rect x="377.52000000000004" y="464.64000000000004" width="5.517600000000001" height="5.517600000000001" rx="0" fill="#4B4B4b"/><rect x="406.56000000000006" y="464.64000000000004" width="5.517600000000001" height="5.517600000000001" rx="0" fill="#F45B69"/><rect x="435.6" y="464.64000000000004" width="5.517600000000001" height="5.517600000000001" rx="0" fill="#F45B69"/><rect x="464.64000000000004" y="464.64000000000004" width="5.517600000000001" height="5.517600000000001" rx="0" fill="#F3003b"/><rect x="493.68000000000006" y="464.64000000000004" width="5.517600000000001" height="5.517600000000001" rx="0" fill="#070707"/><rect x="522.72" y="464.64000000000004" width="5.517600000000001" height="5.517600000000001" rx="0" fill="#F3003b"/><rect x="551.7600000000001" y="464.64000000000004" width="5.517600000000001" height="5.517600000000001" rx="0" fill="#070707"/><rect x="580.8000000000001" y="464.64000000000004" width="5.517600000000001" height="5.517600000000001" rx="0" fill="#F45B69"/><rect x="0" y="493.68000000000006" width="5.517600000000001" height="5.517600000000001" rx="0" fill="#070707"/><rect x="29.040000000000003" y="493.68000000000006" width="5.517600000000001" height="5.517600000000001" rx="0" fill="#F3003b"/><rect x="58.080000000000005" y="493.68000000000006" width="5.517600000000001" height="5.517600000000001" rx="0" fill="#4B4B4b"/><rect x="87.12" y="493.68000000000006" width="5.517600000000001" height="5.517600000000001" rx="0" fill="#F3003b"/><rect x="116.16000000000001" y="493.68000000000006" width="5.517600000000001" height="5.517600000000001" rx="0" fill="#4B4B4b"/><rect x="145.20000000000002" y="493.68000000000006" width="5.517600000000001" height="5.517600000000001" rx="0" fill="#F45B69"/><rect x="174.24" y="493.68000000000006" width="5.517600000000001" height="5.517600000000001" rx="0" fill="#F45B69"/><rect x="203.28000000000003" y="493.68000000000006" width="5.517600000000001" height="5.517600000000001" rx="0" fill="#4B4B4b"/><rect x="232.32000000000002" y="493.68000000000006" width="5.517600000000001" height="5.517600000000001" rx="0" fill="#F3003b"/><rect x="261.36" y="493.68000000000006" width="5.517600000000001" height="5.517600000000001" rx="0" fill="#F3003b"/><rect x="290.40000000000003" y="493.68000000000006" width="5.517600000000001" height="5.517600000000001" rx="0" fill="#4B4B4b"/><rect x="319.44000000000005" y="493.68000000000006" width="5.517600000000001" height="5.517600000000001" rx="0" fill="#070707"/><rect x="348.48" y="493.68000000000006" width="5.517600000000001" height="5.517600000000001" rx="0" fill="#070707"/><rect x="377.52000000000004" y="493.68000000000006" width="5.517600000000001" height="5.517600000000001" rx="0" fill="#F3003b"/><rect x="406.56000000000006" y="493.68000000000006" width="5.517600000000001" height="5.517600000000001" rx="0" fill="#070707"/><rect x="435.6" y="493.68000000000006" width="5.517600000000001" height="5.517600000000001" rx="0" fill="#4B4B4b"/><rect x="464.64000000000004" y="493.68000000000006" width="5.517600000000001" height="5.517600000000001" rx="0" fill="#F3003b"/><rect x="493.68000000000006" y="493.68000000000006" width="5.517600000000001" height="5.517600000000001" rx="0" fill="#F45B69"/><rect x="522.72" y="493.68000000000006" width="5.517600000000001" height="5.517600000000001" rx="0" fill="#F3003b"/><rect x="551.7600000000001" y="493.68000000000006" width="5.517600000000001" height="5.517600000000001" rx="0" fill="#4B4B4b"/><rect x="580.8000000000001" y="493.68000000000006" width="5.517600000000001" height="5.517600000000001" rx="0" fill="#F3003b"/><rect x="0" y="522.72" width="5.517600000000001" height="5.517600000000001" rx="0" fill="#4B4B4b"/><rect x="29.040000000000003" y="522.72" width="5.517600000000001" height="5.517600000000001" rx="0" fill="#F45B69"/><rect x="58.080000000000005" y="522.72" width="5.517600000000001" height="5.517600000000001" rx="0" fill="#F45B69"/><rect x="87.12" y="522.72" width="5.517600000000001" height="5.517600000000001" rx="0" fill="#4B4B4b"/><rect x="116.16000000000001" y="522.72" width="5.517600000000001" height="5.517600000000001" rx="0" fill="#4B4B4b"/><rect x="145.20000000000002" y="522.72" width="5.517600000000001" height="5.517600000000001" rx="0" fill="#F45B69"/><rect x="174.24" y="522.72" width="5.517600000000001" height="5.517600000000001" rx="0" fill="#F3003b"/><rect x="203.28000000000003" y="522.72" width="5.517600000000001" height="5.517600000000001" rx="0" fill="#F3003b"/><rect x="232.32000000000002" y="522.72" width="5.517600000000001" height="5.517600000000001" rx="0" fill="#F3003b"/><rect x="261.36" y="522.72" width="5.517600000000001" height="5.517600000000001" rx="0" fill="#070707"/><rect x="290.40000000000003" y="522.72" width="5.517600000000001" height="5.517600000000001" rx="0" fill="#4B4B4b"/><rect x="319.44000000000005" y="522.72" width="5.517600000000001" height="5.517600000000001" rx="0" fill="#4B4B4b"/><rect x="348.48" y="522.72" width="5.517600000000001" height="5.517600000000001" rx="0" fill="#F3003b"/><rect x="377.52000000000004" y="522.72" width="5.517600000000001" height="5.517600000000001" rx="0" fill="#4B4B4b"/><rect x="406.56000000000006" y="522.72" width="5.517600000000001" height="5.517600000000001" rx="0" fill="#F45B69"/><rect x="435.6" y="522.72" width="5.517600000000001" height="5.517600000000001" rx="0" fill="#F45B69"/><rect x="464.64000000000004" y="522.72" width="5.517600000000001" height="5.517600000000001" rx="0" fill="#F45B69"/><rect x="493.68000000000006" y="522.72" width="5.517600000000001" height="5.517600000000001" rx="0" fill="#4B4B4b"/><rect x="522.72" y="522.72" width="5.517600000000001" height="5.517600000000001" rx="0" fill="#070707"/><rect x="551.7600000000001" y="522.72" width="5.517600000000001" height="5.517600000000001" rx="0" fill="#4B4B4b"/><rect x="580.8000000000001" y="522.72" width="5.517600000000001" height="5.517600000000001" rx="0" fill="#070707"/><rect x="0" y="551.7600000000001" width="5.517600000000001" height="5.517600000000001" rx="0" fill="#F45B69"/><rect x="29.040000000000003" y="551.7600000000001" width="5.517600000000001" height="5.517600000000001" rx="0" fill="#F45B69"/><rect x="58.080000000000005" y="551.7600000000001" width="5.517600000000001" height="5.517600000000001" rx="0" fill="#070707"/><rect x="87.12" y="551.7600000000001" width="5.517600000000001" height="5.517600000000001" rx="0" fill="#070707"/><rect x="116.16000000000001" y="551.7600000000001" width="5.517600000000001" height="5.517600000000001" rx="0" fill="#F3003b"/><rect x="145.20000000000002" y="551.7600000000001" width="5.517600000000001" height="5.517600000000001" rx="0" fill="#F3003b"/><rect x="174.24" y="551.7600000000001" width="5.517600000000001" height="5.517600000000001" rx="0" fill="#070707"/><rect x="203.28000000000003" y="551.7600000000001" width="5.517600000000001" height="5.517600000000001" rx="0" fill="#F45B69"/><rect x="232.32000000000002" y="551.7600000000001" width="5.517600000000001" height="5.517600000000001" rx="0" fill="#F3003b"/><rect x="261.36" y="551.7600000000001" width="5.517600000000001" height="5.517600000000001" rx="0" fill="#4B4B4b"/><rect x="290.40000000000003" y="551.7600000000001" width="5.517600000000001" height="5.517600000000001" rx="0" fill="#4B4B4b"/><rect x="319.44000000000005" y="551.7600000000001" width="5.517600000000001" height="5.517600000000001" rx="0" fill="#4B4B4b"/><rect x="348.48" y="551.7600000000001" width="5.517600000000001" height="5.517600000000001" rx="0" fill="#070707"/><rect x="377.52000000000004" y="551.7600000000001" width="5.517600000000001" height="5.517600000000001" rx="0" fill="#F45B69"/><rect x="406.56000000000006" y="551.7600000000001" width="5.517600000000001" height="5.517600000000001" rx="0" fill="#F3003b"/><rect x="435.6" y="551.7600000000001" width="5.517600000000001" height="5.517600000000001" rx="0" fill="#F3003b"/><rect x="464.64000000000004" y="551.7600000000001" width="5.517600000000001" height="5.517600000000001" rx="0" fill="#070707"/><rect x="493.68000000000006" y="551.7600000000001" width="5.517600000000001" height="5.517600000000001" rx="0" fill="#070707"/><rect x="522.72" y="551.7600000000001" width="5.517600000000001" height="5.517600000000001" rx="0" fill="#4B4B4b"/><rect x="551.7600000000001" y="551.7600000000001" width="5.517600000000001" height="5.517600000000001" rx="0" fill="#F45B69"/><rect x="580.8000000000001" y="551.7600000000001" width="5.517600000000001" height="5.517600000000001" rx="0" fill="#070707"/><rect x="0" y="580.8000000000001" width="5.517600000000001" height="5.517600000000001" rx="0" fill="#4B4B4b"/><rect x="29.040000000000003" y="580.8000000000001" width="5.517600000000001" height="5.517600000000001" rx="0" fill="#4B4B4b"/><rect x="58.080000000000005" y="580.8000000000001" width="5.517600000000001" height="5.517600000000001" rx="0" fill="#4B4B4b"/><rect x="87.12" y="580.8000000000001" width="5.517600000000001" height="5.517600000000001" rx="0" fill="#F3003b"/><rect x="116.16000000000001" y="580.8000000000001" width="5.517600000000001" height="5.517600000000001" rx="0" fill="#070707"/><rect x="145.20000000000002" y="580.8000000000001" width="5.517600000000001" height="5.517600000000001" rx="0" fill="#F3003b"/><rect x="174.24" y="580.8000000000001" width="5.517600000000001" height="5.517600000000001" rx="0" fill="#070707"/><rect x="203.28000000000003" y="580.8000000000001" width="5.517600000000001" height="5.517600000000001" rx="0" fill="#4B4B4b"/><rect x="232.32000000000002" y="580.8000000000001" width="5.517600000000001" height="5.517600000000001" rx="0" fill="#F3003b"/><rect x="261.36" y="580.8000000000001" width="5.517600000000001" height="5.517600000000001" rx="0" fill="#F3003b"/><rect x="290.40000000000003" y="580.8000000000001" width="5.517600000000001" height="5.517600000000001" rx="0" fill="#4B4B4b"/><rect x="319.44000000000005" y="580.8000000000001" width="5.517600000000001" height="5.517600000000001" rx="0" fill="#4B4B4b"/><rect x="348.48" y="580.8000000000001" width="5.517600000000001" height="5.517600000000001" rx="0" fill="#4B4B4b"/><rect x="377.52000000000004" y="580.8000000000001" width="5.517600000000001" height="5.517600000000001" rx="0" fill="#4B4B4b"/><rect x="406.56000000000006" y="580.8000000000001" width="5.517600000000001" height="5.517600000000001" rx="0" fill="#F3003b"/><rect x="435.6" y="580.8000000000001" width="5.517600000000001" height="5.517600000000001" rx="0" fill="#F3003b"/><rect x="464.64000000000004" y="580.8000000000001" width="5.517600000000001" height="5.517600000000001" rx="0" fill="#4B4B4b"/><rect x="493.68000000000006" y="580.8000000000001" width="5.517600000000001" height="5.517600000000001" rx="0" fill="#F45B69"/><rect x="522.72" y="580.8000000000001" width="5.517600000000001" height="5.517600000000001" rx="0" fill="#F45B69"/><rect x="551.7600000000001" y="580.8000000000001" width="5.517600000000001" height="5.517600000000001" rx="0" fill="#4B4B4b"/><rect x="580.8000000000001" y="580.8000000000001" width="5.517600000000001" height="5.517600000000001" rx="0" fill="#070707"/><rect x="0" y="609.84" width="5.517600000000001" height="5.517600000000001" rx="0" fill="#F3003b"/><rect x="29.040000000000003" y="609.84" width="5.517600000000001" height="5.517600000000001" rx="0" fill="#4B4B4b"/><rect x="58.080000000000005" y="609.84" width="5.517600000000001" height="5.517600000000001" rx="0" fill="#F45B69"/><rect x="87.12" y="609.84" width="5.517600000000001" height="5.517600000000001" rx="0" fill="#4B4B4b"/><rect x="116.16000000000001" y="609.84" width="5.517600000000001" height="5.517600000000001" rx="0" fill="#070707"/><rect x="145.20000000000002" y="609.84" width="5.517600000000001" height="5.517600000000001" rx="0" fill="#070707"/><rect x="174.24" y="609.84" width="5.517600000000001" height="5.517600000000001" rx="0" fill="#4B4B4b"/><rect x="203.28000000000003" y="609.84" width="5.517600000000001" height="5.517600000000001" rx="0" fill="#F3003b"/><rect x="232.32000000000002" y="609.84" width="5.517600000000001" height="5.517600000000001" rx="0" fill="#070707"/><rect x="261.36" y="609.84" width="5.517600000000001" height="5.517600000000001" rx="0" fill="#070707"/><rect x="290.40000000000003" y="609.84" width="5.517600000000001" height="5.517600000000001" rx="0" fill="#070707"/><rect x="319.44000000000005" y="609.84" width="5.517600000000001" height="5.517600000000001" rx="0" fill="#4B4B4b"/><rect x="348.48" y="609.84" width="5.517600000000001" height="5.517600000000001" rx="0" fill="#4B4B4b"/><rect x="377.52000000000004" y="609.84" width="5.517600000000001" height="5.517600000000001" rx="0" fill="#F3003b"/><rect x="406.56000000000006" y="609.84" width="5.517600000000001" height="5.517600000000001" rx="0" fill="#F45B69"/><rect x="435.6" y="609.84" width="5.517600000000001" height="5.517600000000001" rx="0" fill="#F45B69"/><rect x="464.64000000000004" y="609.84" width="5.517600000000001" height="5.517600000000001" rx="0" fill="#070707"/><rect x="493.68000000000006" y="609.84" width="5.517600000000001" height="5.517600000000001" rx="0" fill="#F45B69"/><rect x="522.72" y="609.84" width="5.517600000000001" height="5.517600000000001" rx="0" fill="#4B4B4b"/><rect x="551.7600000000001" y="609.84" width="5.517600000000001" height="5.517600000000001" rx="0" fill="#F45B69"/><rect x="580.8000000000001" y="609.84" width="5.517600000000001" height="5.517600000000001" rx="0" fill="#4B4B4b"/></svg>