<svg class="border shadow-md" viewBox="0 0 609.84 609.84" xmlns="http://www.w3.org/2000/svg" preserveAspectRatio="none" style="width: 609.84px; height: 609.84px;"><rect class="bg" id="bg" x="0" y="0" width="609.84" height="609.84" fill="#fbfbf7"/><line opacity="0.8" x1="-45" y1="53" x2="703.84" y2="38" stroke="#F45B69" stroke-width="2"/><line opacity="0.8" x1="-26" y1="45.45538461538462" x2="706.84" y2="45.45538461538462" stroke="#F6E8EA" stroke-width="2"/><line opacity="0.8" x1="-11" y1="86.91076923076923" x2="718.84" y2="78.91076923076923" stroke="#4B4B4B" stroke-width="2"/><line opacity="0.8" x1="-5" y1="90.36615384615385" x2="723.84" y2="109.36615384615385" stroke="#F3003b" stroke-width="2"/><line opacity="0.8" x1="-17" y1="144.82153846153847" x2="673.84" y2="94.82153846153847" stroke="#F45B69" stroke-width="2"/><line opacity="0.8" x1="-56" y1="142.27692307692308" x2="690.84" y2="123.27692307692308" stroke="#F6E8EA" stroke-width="2"/><line opacity="0.8" x1="-29" y1="150.7323076923077" x2="703.84" y2="144.7323076923077" stroke="#4B4B4B" stroke-width="2"/><line opacity="0.8" x1="-33" y1="197.18769230769232" x2="693.84" y2="209.18769230769232" stroke="#F3003b" stroke-width="2"/><line opacity="0.8" x1="-60" y1="206.64307692307693" x2="703.84" y2="192.64307692307693" stroke="#F45B69" stroke-width="2"/><line opacity="0.8" x1="-62" y1="236.09846153846155" x2="703.84" y2="255.09846153846155" stroke="#F6E8EA" stroke-width="2"/><line opacity="0.8" x1="-43" y1="244.55384615384617" x2="712.84" y2="287.55384615384617" stroke="#4B4B4B" stroke-width="2"/><line opacity="0.8" x1="-36" y1="274.0092307692308" x2="702.84" y2="271.0092307692308" stroke="#F3003b" stroke-width="2"/><line opacity="0.8" x1="-61" y1="310.4646153846154" x2="735.84" y2="312.4646153846154" stroke="#F45B69" stroke-width="2"/><line opacity="0.8" x1="-5" y1="310.92" x2="684.84" y2="337.92" stroke="#F6E8EA" stroke-width="2"/><line opacity="0.8" x1="-58" y1="336.37538461538463" x2="691.84" y2="366.37538461538463" stroke="#4B4B4B" stroke-width="2"/><line opacity="0.8" x1="-13" y1="372.83076923076925" x2="727.84" y2="374.83076923076925" stroke="#F3003b" stroke-width="2"/><line opacity="0.8" x1="-20" y1="407.28615384615387" x2="712.84" y2="376.28615384615387" stroke="#F45B69" stroke-width="2"/><line opacity="0.8" x1="-19" y1="416.7415384615385" x2="705.84" y2="403.7415384615385" stroke="#F6E8EA" stroke-width="2"/><line opacity="0.8" x1="-7" y1="438.1969230769231" x2="690.84" y2="441.1969230769231" stroke="#4B4B4B" stroke-width="2"/><line opacity="0.8" x1="-30" y1="479.6523076923077" x2="734.84" y2="488.6523076923077" stroke="#F3003b" stroke-width="2"/><line opacity="0.8" x1="-18" y1="516.1076923076923" x2="684.84" y2="477.10769230769233" stroke="#F45B69" stroke-width="2"/><line opacity="0.8" x1="-27" y1="518.563076923077" x2="677.84" y2="536.563076923077" stroke="#F6E8EA" stroke-width="2"/><line opacity="0.8" x1="-3" y1="545.0184615384616" x2="697.84" y2="519.0184615384616" stroke="#4B4B4B" stroke-width="2"/><line opacity="0.8" x1="-6" y1="563.4738461538461" x2="710.84" y2="579.4738461538461" stroke="#F3003b" stroke-width="2"/><line opacity="0.8" x1="-42" y1="582.9292307692308" x2="694.84" y2="581.9292307692308" stroke="#F45B69" stroke-width="2"/><line opacity="0.8" x1="-45" y1="638.3846153846155" x2="712.84" y2="597.3846153846155" stroke="#F6E8EA" stroke-width="2"/><line opacity="0.8" x1="-33" y1="657.84" x2="731.84" y2="625.84" stroke="#4B4B4B" stroke-width="2"/></svg>