<?xml version="1.0" standalone="no"?>
<svg xmlns:xlink="http://www.w3.org/1999/xlink" id="wave" style="transform:rotate(180deg); transition: 0.3s" viewBox="0 0 1440 200" version="1.1" xmlns="http://www.w3.org/2000/svg"><defs><linearGradient id="sw-gradient-0" x1="0" x2="0" y1="1" y2="0"><stop stop-color="rgba(75, 75, 75, 1)" offset="0%"/><stop stop-color="rgba(75, 75, 75, 1)" offset="100%"/></linearGradient></defs><path style="transform:translate(0, 0px); opacity:1" fill="url(#sw-gradient-0)" d="M0,140L14.1,146.7C28.2,153,56,167,85,160C112.9,153,141,127,169,103.3C197.6,80,226,60,254,53.3C282.4,47,311,53,339,76.7C367.1,100,395,140,424,130C451.8,120,480,60,508,60C536.5,60,565,120,593,150C621.2,180,649,180,678,170C705.9,160,734,140,762,120C790.6,100,819,80,847,90C875.3,100,904,140,932,136.7C960,133,988,87,1016,86.7C1044.7,87,1073,133,1101,130C1129.4,127,1158,73,1186,43.3C1214.1,13,1242,7,1271,26.7C1298.8,47,1327,93,1355,100C1383.5,107,1412,73,1440,73.3C1468.2,73,1496,107,1525,103.3C1552.9,100,1581,60,1609,66.7C1637.6,73,1666,127,1694,146.7C1722.4,167,1751,153,1779,133.3C1807.1,113,1835,87,1864,93.3C1891.8,100,1920,140,1948,146.7C1976.5,153,2005,127,2019,113.3L2032.9,100L2032.9,200L2018.8,200C2004.7,200,1976,200,1948,200C1920,200,1892,200,1864,200C1835.3,200,1807,200,1779,200C1750.6,200,1722,200,1694,200C1665.9,200,1638,200,1609,200C1581.2,200,1553,200,1525,200C1496.5,200,1468,200,1440,200C1411.8,200,1384,200,1355,200C1327.1,200,1299,200,1271,200C1242.4,200,1214,200,1186,200C1157.6,200,1129,200,1101,200C1072.9,200,1045,200,1016,200C988.2,200,960,200,932,200C903.5,200,875,200,847,200C818.8,200,791,200,762,200C734.1,200,706,200,678,200C649.4,200,621,200,593,200C564.7,200,536,200,508,200C480,200,452,200,424,200C395.3,200,367,200,339,200C310.6,200,282,200,254,200C225.9,200,198,200,169,200C141.2,200,113,200,85,200C56.5,200,28,200,14,200L0,200Z"/></svg>